<svg width="98" height="74" viewBox="0 0 98 74" fill="none" xmlns="http://www.w3.org/2000/svg">
<path d="M37.3047 0V6.13086C27.6094 12.0241 21.0033 17.4896 17.4863 22.5273C14.9199 26.2344 13.6367 30.6068 13.6367 35.6445C13.6367 38.6862 14.207 40.9199 15.3477 42.3457C16.3932 43.7715 17.6289 44.4844 19.0547 44.4844C20.0052 44.4844 21.3359 44.1517 23.0469 43.4863C25.6133 42.6309 27.7044 42.2031 29.3203 42.2031C33.1224 42.2031 36.4967 43.6289 39.4434 46.4805C42.39 49.332 43.8633 52.8965 43.8633 57.1738C43.8633 62.0215 42.39 65.776 39.4434 68.4375C35.3561 72.0495 30.6035 73.8555 25.1855 73.8555C18.722 73.8555 12.9714 71.1465 7.93359 65.7285C2.89583 60.3105 0.376953 53.6094 0.376953 45.625C0.376953 34.4089 4.55925 24.1908 12.9238 14.9707C18.5319 8.88737 26.6589 3.89714 37.3047 0Z" fill="#776F60" fill-opacity="0.24"/>
<path d="M90.743 0V6.13086C81.0477 12.0241 74.4415 17.4896 70.9246 22.5273C68.3582 26.2344 67.075 30.6068 67.075 35.6445C67.075 38.6862 67.6453 40.9199 68.7859 42.3457C69.8315 43.7715 71.0672 44.4844 72.493 44.4844C73.4435 44.4844 74.7742 44.1517 76.4852 43.4863C79.0516 42.6309 81.1427 42.2031 82.7586 42.2031C86.5607 42.2031 89.935 43.6289 92.8816 46.4805C95.8283 49.332 97.3016 52.8965 97.3016 57.1738C97.3016 62.0215 95.8283 65.776 92.8816 68.4375C88.7944 72.0495 84.0418 73.8555 78.6238 73.8555C72.1603 73.8555 66.4096 71.1465 61.3719 65.7285C56.3341 60.3105 53.8152 53.6094 53.8152 45.625C53.8152 34.4089 57.9975 24.1908 66.3621 14.9707C71.9702 8.88737 80.0971 3.89714 90.743 0Z" fill="#776F60" fill-opacity="0.24"/>
</svg>
